<?xml version="1.0" standalone="no"?>
<!DOCTYPE svg PUBLIC "-//W3C//DTD SVG 20010904//EN"
 "http://www.w3.org/TR/2001/REC-SVG-20010904/DTD/svg10.dtd">
<svg version="1.0" xmlns="http://www.w3.org/2000/svg"
 width="900.000000pt" height="540.000000pt" viewBox="0 0 900.000000 540.000000"
 preserveAspectRatio="xMidYMid meet">

<g transform="translate(0.000000,540.000000) scale(0.100000,-0.100000)"
fill="#000000" stroke="none">
<path d="M4310 5269 c-137 -104 -398 -243 -579 -308 -96 -35 -236 -67 -336
-76 -153 -15 -418 39 -613 125 -64 29 -125 53 -134 53 -11 1 -132 -134 -346
-388 l-329 -390 118 -122 c174 -179 286 -338 347 -491 24 -62 26 -77 25 -207
-1 -208 -40 -401 -135 -675 -161 -468 -186 -567 -195 -776 -15 -341 101 -641
322 -836 214 -188 435 -300 1210 -613 364 -146 522 -232 638 -344 l78 -75 67
66 c37 36 89 80 115 98 84 56 341 174 662 303 715 289 1006 454 1188 674 93
114 173 303 201 480 41 261 4 509 -134 883 -111 302 -162 511 -181 742 -10
118 -9 147 5 208 35 157 195 397 390 589 85 83 95 96 83 110 -8 9 -151 178
-317 376 -167 198 -311 369 -321 379 -18 19 -20 19 -109 -23 -275 -128 -574
-175 -800 -127 -240 51 -608 227 -811 387 -20 16 -38 29 -40 28 -2 0 -33 -23
-69 -50z m177 -188 c267 -169 570 -291 798 -322 219 -29 518 23 766 134 l36
16 254 -301 c140 -166 256 -305 257 -310 2 -5 -24 -38 -58 -75 -186 -199 -315
-402 -361 -569 -19 -70 -21 -95 -16 -229 8 -235 59 -456 182 -795 104 -287
135 -411 150 -606 14 -168 -30 -378 -112 -536 -127 -246 -414 -428 -1143 -723
-531 -215 -671 -281 -796 -375 l-64 -49 -72 54 c-127 96 -275 165 -838 395
-320 130 -637 282 -765 367 -247 163 -338 287 -412 553 -14 52 -18 104 -18
260 0 186 2 201 32 320 17 69 64 215 103 324 131 368 179 573 187 811 6 174
-5 240 -62 359 -65 136 -226 359 -339 465 -20 19 -36 39 -36 43 0 6 448 542
510 611 4 5 29 -2 56 -16 67 -34 251 -92 354 -112 130 -25 316 -30 433 -11
226 37 530 166 780 330 45 30 83 55 84 55 1 1 50 -30 110 -68z"/>
<path d="M4320 4953 c-134 -88 -374 -201 -558 -262 -174 -58 -229 -66 -442
-65 -217 0 -284 11 -499 81 l-114 37 -41 -49 c-22 -27 -105 -125 -183 -218
-79 -93 -143 -172 -143 -177 0 -4 31 -44 69 -88 123 -143 226 -311 283 -463
29 -78 32 -95 36 -240 4 -165 -10 -303 -49 -468 -10 -46 -18 -86 -16 -88 2 -2
756 396 1675 884 919 488 1669 889 1668 890 -1 2 -42 -11 -91 -27 -179 -61
-271 -75 -480 -75 -215 0 -271 9 -470 76 -139 48 -384 163 -502 237 -46 29
-84 52 -85 51 -2 0 -28 -16 -58 -36z m-67 -384 l102 -1 -82 -40 -82 -40 29
-52 c17 -29 30 -55 30 -59 0 -3 -33 10 -74 29 -41 19 -79 34 -84 34 -5 0 -44
-16 -86 -35 l-76 -35 30 61 31 60 -83 39 -83 38 105 1 106 1 28 57 28 58 29
-58 29 -57 103 -1z m-713 -49 l30 -60 112 0 c63 0 108 -4 103 -9 -6 -4 -44
-23 -85 -42 -41 -18 -76 -34 -78 -35 -2 -1 10 -29 27 -63 17 -33 31 -63 31
-65 0 -3 -38 13 -85 34 l-86 39 -87 -38 c-48 -21 -89 -37 -90 -36 -2 2 11 31
30 65 21 41 29 64 22 67 -7 2 -47 21 -90 43 l-79 39 112 0 112 1 33 60 c18 33
34 60 35 60 2 0 16 -27 33 -60z m1105 0 l25 -50 93 0 92 -1 -70 -36 c-38 -19
-72 -37 -74 -39 -2 -2 8 -23 23 -48 14 -24 26 -47 26 -50 0 -3 -30 8 -66 24
-36 17 -71 30 -76 30 -6 0 -37 -12 -69 -26 -33 -15 -62 -25 -64 -22 -3 3 6 25
20 50 l25 45 -72 34 -73 34 91 3 91 3 23 49 c13 28 25 50 27 50 1 0 14 -22 28
-50z m-1587 -285 l32 -65 127 -1 128 -1 -90 -44 c-49 -24 -94 -45 -100 -47 -5
-2 5 -34 23 -72 18 -37 31 -69 29 -71 -2 -2 -45 15 -95 38 l-91 41 -95 -41
c-52 -23 -97 -42 -100 -42 -3 0 12 32 32 71 20 39 33 73 27 75 -5 3 -50 24
-100 48 l-90 44 125 1 125 1 35 65 c19 36 37 65 40 65 3 0 20 -29 38 -65z
m430 -290 l42 -84 157 -3 158 -3 -123 -54 c-67 -30 -122 -59 -122 -63 0 -5 18
-45 41 -89 22 -45 39 -82 37 -84 -2 -1 -56 22 -121 51 l-117 53 -122 -54 c-67
-30 -123 -55 -125 -55 -2 0 17 37 42 83 25 46 45 88 45 93 0 6 -55 35 -122 65
l-123 54 158 3 157 3 42 84 c24 47 45 85 48 85 3 0 24 -38 48 -85z"/>
<path d="M5817 4508 c-18 -24 -50 -65 -70 -92 l-37 -49 36 -25 c43 -29 39 -31
150 60 41 34 71 64 67 68 -18 15 -89 67 -100 73 -7 4 -25 -10 -46 -35z"/>
<path d="M5553 4269 l-93 -50 -1 -222 c-1 -122 -3 -261 -5 -309 -2 -49 -1 -88
3 -88 3 0 41 19 84 43 l79 42 0 55 1 55 147 78 c160 86 145 84 219 37 20 -13
28 -12 80 14 124 60 140 36 -151 227 -141 93 -260 169 -264 169 -4 0 -49 -23
-99 -51z m185 -194 c34 -22 62 -42 62 -45 0 -3 -41 -27 -90 -53 l-90 -48 0
111 0 112 29 -19 c15 -10 56 -36 89 -58z"/>
<path d="M5045 3997 c-17 -7 -135 -67 -263 -135 l-232 -124 24 -41 c13 -23 70
-130 126 -237 57 -107 105 -197 107 -200 3 -3 38 13 78 34 l74 39 -35 63 -35
62 125 66 c75 40 136 66 155 66 27 0 34 -6 56 -51 14 -28 29 -49 33 -47 30 14
119 62 129 70 10 8 6 22 -13 60 -36 72 -66 98 -109 98 -35 0 -36 0 -21 22 23
32 19 85 -9 143 -52 108 -111 142 -190 112z m45 -189 c28 -46 25 -63 -12 -91
-35 -26 -249 -140 -253 -135 -5 6 -55 107 -55 112 0 4 123 72 240 133 39 20
59 16 80 -19z"/>
<path d="M5695 3482 l-330 -177 -3 -1174 c-2 -937 0 -1172 10 -1168 229 93
483 222 619 312 141 94 228 184 278 288 61 125 82 212 88 358 9 206 -12 303
-162 734 -86 247 -127 405 -151 574 -17 118 -23 368 -10 409 4 12 4 22 -1 21
-4 0 -156 -80 -338 -177z"/>
<path d="M4134 3518 l-91 -49 -5 -307 c-3 -169 -4 -309 -1 -312 2 -2 39 14 81
37 l77 42 5 57 5 57 148 78 149 79 44 -31 44 -30 80 42 c64 34 78 45 68 55
-16 14 -506 334 -510 333 -2 -1 -44 -24 -94 -51z m246 -243 c0 -5 -164 -95
-174 -95 -3 0 -6 50 -6 110 l0 111 90 -61 c50 -33 90 -62 90 -65z"/>
<path d="M3470 3164 c-140 -75 -258 -139 -263 -143 -8 -8 236 -474 251 -479 6
-2 68 28 139 66 70 38 187 100 258 137 72 38 131 69 133 70 6 5 -53 115 -62
115 -5 0 -80 -38 -165 -84 -86 -46 -171 -91 -188 -100 l-32 -16 -20 38 -20 39
167 88 c92 49 172 92 179 98 9 7 6 21 -13 59 l-25 49 -82 -44 c-215 -117 -278
-149 -281 -146 -9 10 -37 71 -34 74 2 2 85 47 186 100 100 53 182 101 182 106
0 10 -48 109 -53 109 -1 0 -117 -62 -257 -136z"/>
<path d="M4373 2777 l-492 -262 -1 -875 0 -875 48 -19 c83 -33 337 -162 395
-200 l56 -37 73 44 c93 56 195 108 323 163 l100 43 3 1141 c1 627 -1 1140 -5
1139 -5 0 -230 -118 -500 -262z"/>
<path d="M2945 2887 c-104 -46 -324 -170 -355 -200 -44 -42 -63 -91 -55 -135
4 -20 27 -76 52 -126 87 -174 129 -216 216 -216 41 0 75 14 229 93 261 133
308 182 273 285 -8 26 -22 55 -30 65 -13 18 -17 17 -83 -19 -69 -38 -70 -38
-65 -75 5 -35 3 -39 -34 -62 -72 -46 -222 -117 -246 -117 -32 0 -60 32 -97
113 -36 77 -35 105 8 135 41 29 227 122 244 122 8 0 23 -8 32 -19 16 -18 19
-17 84 17 37 19 69 37 72 39 8 7 -34 75 -63 99 -38 32 -112 32 -182 1z"/>
<path d="M3195 2151 c-262 -140 -347 -186 -572 -305 l-201 -107 9 -34 c17 -62
67 -174 98 -218 69 -100 222 -216 431 -325 117 -62 409 -192 429 -192 8 0 11
180 11 640 0 506 -3 640 -12 639 -7 0 -94 -44 -193 -98z"/>
</g>
</svg>
